<?xml version="1.0" encoding="UTF-8"?>
<svg id="Layer_2" data-name="Layer 2" xmlns="http://www.w3.org/2000/svg" viewBox="0 0 281.18 103.2">
  <defs>
    <style>
      .cls-1, .cls-2 {
        fill: #231f20;
      }

      .cls-2 {
        fill-rule: evenodd;
      }

      .cls-3 {
        fill: #c72026;
      }
    </style>
  </defs>
  <g id="Layer_1-2" data-name="Layer 1">
    <g>
      <g>
        <path class="cls-1" d="M220.78,74.23c0,1.01-.25,1.84-.74,2.48-.49.64-1.12,1.13-1.88,1.46s-1.5.55-2.22.66-1.42.16-2.09.16h-8.68v-1.22c.74,0,1.29-.08,1.64-.24.35-.16.58-.39.69-.68.11-.29.16-.7.16-1.21v-11.38c0-.8-.16-1.35-.47-1.66s-.99-.47-2.02-.47v-1.25c1.23-.03,2.41-.05,3.52-.08,1.11-.03,2.03-.05,2.75-.06s1.22-.02,1.51-.02h.47c.89,0,1.81.1,2.78.29s1.85.62,2.64,1.3c.8.67,1.19,1.64,1.19,2.91,0,.95-.32,1.76-.97,2.45s-1.71,1.25-3.18,1.69c1,.19,1.88.5,2.62.94.74.44,1.31,1,1.69,1.67.38.67.57,1.43.57,2.27ZM216.38,65.32c0-.62-.14-1.16-.43-1.63-.29-.47-.71-.83-1.26-1.09s-1.24-.39-2.05-.39h-1.34v6.46h1.05c1.37,0,2.39-.3,3.04-.9.66-.6.99-1.42.99-2.45ZM216.86,74c0-1.22-.3-2.17-.91-2.85-.61-.68-1.47-1.02-2.57-1.02h-2.07v4.69c0,.66.04,1.17.12,1.54.08.37.27.65.57.85s.79.3,1.46.3c.89,0,1.67-.28,2.37-.84.69-.56,1.04-1.45,1.04-2.67Z"/>
        <path class="cls-1" d="M239.23,78.99h-8.16v-1.22c.69,0,1.19-.05,1.51-.15s.47-.34.47-.72c0-.27-.05-.54-.15-.81l-.82-2.13h-5.62l-.42,1.17c-.24.66-.36,1.13-.36,1.42,0,.53.2.87.59,1.01.4.14.86.21,1.39.21v1.22h-5.96v-1.22c.48,0,.88-.09,1.21-.28s.65-.54.95-1.06.63-1.25.98-2.2l4.99-13.61h1.21l5.27,14.04c.38.99.66,1.66.84,2.01.18.35.43.62.74.81.31.19.76.29,1.33.29v1.22ZM231.63,72.65l-2.39-6.29-2.27,6.29h4.66Z"/>
        <path class="cls-1" d="M259.44,62.18c-.83,0-1.42.09-1.77.26-.36.17-.58.43-.66.76-.09.34-.13.89-.13,1.65v14.29h-1.17l-11.32-14.01v9.93c0,.75.04,1.3.13,1.64.09.34.32.6.68.78.37.18.96.27,1.77.27v1.22h-6.43v-1.22c.77,0,1.32-.09,1.67-.27.34-.18.56-.44.64-.78.08-.34.12-.89.12-1.64v-9.2c0-.74-.02-1.3-.06-1.67-.04-.37-.13-.7-.27-.98-.15-.28-.38-.51-.71-.68-.33-.17-.78-.29-1.36-.35v-1.22h5.04l9.86,12.12v-8.23c0-.67-.04-1.19-.13-1.55-.09-.36-.31-.64-.66-.83-.35-.19-.91-.29-1.68-.29v-1.22h6.46v1.22Z"/>
        <path class="cls-1" d="M281.18,78.99h-9.61v-1.22h.78c.66,0,1.12-.04,1.36-.13.24-.08.36-.23.36-.45,0-.31-.35-.97-1.05-1.99l-3.71-5.46-2.2,2.01v3.9c0,.79.17,1.34.52,1.66.35.31,1.01.47,1.99.47v1.22h-8.66v-1.22c.74,0,1.29-.08,1.64-.24.35-.16.58-.39.69-.68s.16-.7.16-1.21v-11.33c0-.51-.05-.92-.15-1.2-.1-.29-.33-.51-.69-.68-.36-.16-.91-.25-1.65-.25v-1.22h8.66v1.22c-1.06,0-1.75.16-2.06.48-.31.32-.46.87-.46,1.65v5.42l5.39-4.91c.37-.34.65-.63.82-.87s.26-.52.26-.82c0-.64-.58-.96-1.75-.96v-1.22h7.9v1.22c-.61.05-1.11.13-1.5.23s-.76.26-1.13.48c-.37.22-.77.51-1.2.88s-1.12.97-2.06,1.82l-1.81,1.64,5.11,7.58c.54.81.99,1.41,1.34,1.8.35.39.72.68,1.12.86s.93.28,1.58.31v1.22Z"/>
      </g>
      <g>
        <path class="cls-3" d="M111.06,78.68h-4.05v-.57c.35,0,.61-.04.77-.11.16-.07.27-.18.32-.32.05-.14.07-.33.07-.57v-5.27l-3.05,6.83h-.36l-3.09-6.83v5c0,.26,0,.47.03.61.02.14.06.26.14.36.07.1.19.17.35.22.16.05.38.07.66.07v.57h-2.99v-.57c.29,0,.51-.02.66-.07.16-.05.27-.12.34-.22.07-.1.12-.22.13-.36.02-.14.02-.34.02-.6v-4.76c0-.36-.02-.61-.05-.77-.04-.16-.13-.28-.29-.36-.16-.08-.43-.12-.81-.12v-.57h2.95l2.68,5.94,2.69-5.94h2.89v.57c-.5,0-.82.08-.96.23-.15.15-.22.41-.22.77v5.28c0,.23.02.41.07.55.05.14.16.25.33.33.17.08.43.11.78.11v.57Z"/>
        <path class="cls-3" d="M115.93,78.68h-4.1v-.57c.34,0,.6-.03.77-.1s.29-.17.34-.31c.05-.14.08-.33.08-.58v-5.28c0-.36-.07-.62-.22-.77-.14-.15-.47-.22-.98-.22v-.57h4.1v.57c-.34,0-.6.04-.77.11s-.29.17-.34.31-.08.33-.08.58v5.28c0,.24.03.43.08.56.05.14.16.24.33.32s.43.11.79.11v.57Z"/>
        <path class="cls-3" d="M124.67,78.59h-.56c-.08-.36-.22-.67-.41-.96-.3.33-.65.61-1.04.84-.39.24-.92.35-1.58.35-.73,0-1.4-.18-2.02-.55-.62-.37-1.12-.88-1.49-1.54-.37-.66-.55-1.4-.55-2.23,0-.59.1-1.15.3-1.68.2-.53.49-1,.86-1.41s.81-.72,1.33-.96c.51-.23,1.08-.35,1.69-.35,1.01,0,1.84.34,2.5,1.03.09-.18.17-.44.26-.78h.54l.1,3.09h-.57c-.1-.52-.29-.99-.56-1.4-.27-.41-.59-.72-.96-.94s-.76-.33-1.16-.33c-.45,0-.86.13-1.22.39-.36.26-.64.65-.85,1.18-.2.53-.31,1.19-.31,1.98s.09,1.41.26,1.92c.17.51.38.9.63,1.16s.51.44.76.53c.25.09.49.14.71.14.49,0,.93-.14,1.32-.41s.71-.62.96-1.03.42-.83.5-1.24h.57v3.17Z"/>
        <path class="cls-3" d="M134.72,78.68h-2.16c-.08-.09-.18-.22-.29-.4-.12-.17-.25-.38-.38-.61-.14-.23-.25-.43-.35-.58l-.55-.94c-.25-.42-.43-.71-.56-.87-.13-.16-.27-.25-.43-.3-.16-.04-.43-.06-.82-.06h-.3v2.2c0,.23.02.42.07.56.05.14.16.25.34.32s.43.11.77.11v.57h-4.05v-.57c.49,0,.81-.07.95-.22s.21-.41.21-.77v-5.31c0-.36-.07-.62-.21-.77-.14-.15-.46-.23-.96-.23v-.58l1.87-.06c.14,0,.31-.01.49-.02.18,0,.36,0,.52,0,.12,0,.33,0,.61.01.4.01.78.04,1.13.07.35.04.63.09.83.14.3.08.58.21.85.39.27.18.49.42.66.72.17.3.25.64.25,1.04,0,.28-.06.55-.18.82-.12.26-.31.5-.57.71-.26.21-.6.37-1.03.49.29.18.54.4.74.66.2.26.52.74.95,1.45.25.4.46.7.62.91.16.2.31.34.45.42.14.07.31.12.52.14v.57ZM131.37,72.51c0-.67-.2-1.11-.59-1.33-.39-.22-.9-.33-1.53-.33-.09,0-.16,0-.21,0-.05,0-.11,0-.17,0v3.38h.38c.6,0,1.1-.1,1.51-.3s.61-.68.61-1.42Z"/>
        <path class="cls-3" d="M143.99,74.47c0,.77-.17,1.48-.52,2.15-.35.67-.87,1.2-1.55,1.61-.69.4-1.49.6-2.43.6-.76,0-1.43-.13-2.01-.38-.58-.26-1.05-.6-1.42-1.03-.37-.43-.64-.9-.82-1.41-.18-.51-.26-1.03-.26-1.54,0-.75.17-1.46.51-2.12s.85-1.2,1.52-1.61c.68-.41,1.49-.61,2.44-.61.86,0,1.59.15,2.2.44.6.29,1.07.66,1.41,1.11s.58.91.72,1.4c.14.49.22.96.22,1.4ZM142.06,74.45c0-.47-.04-.92-.12-1.34-.08-.42-.21-.8-.41-1.14-.19-.34-.46-.61-.8-.81-.34-.2-.75-.3-1.25-.3-.68,0-1.22.18-1.6.53s-.64.8-.78,1.33c-.14.53-.21,1.11-.21,1.74,0,.35.02.71.07,1.09.04.38.15.76.32,1.16.17.39.43.73.8,1,.37.27.84.41,1.42.41s1.04-.14,1.4-.42c.36-.28.62-.62.79-1.02s.27-.79.31-1.16c.04-.37.06-.72.06-1.05Z"/>
        <path class="cls-3" d="M151.77,72.45h-.56c-.1-.47-.23-.81-.4-1.02-.16-.22-.35-.35-.55-.4-.2-.05-.49-.07-.85-.07h-1.44v2.97h.76c.36,0,.6-.06.73-.19s.2-.41.23-.85h.55v2.8h-.56c-.02-.32-.06-.55-.11-.69s-.15-.24-.27-.29-.32-.08-.58-.08h-.73v2.5c0,.34.06.59.19.75.13.16.44.24.92.24h.17v.57h-4.14v-.57c.49,0,.81-.08.95-.23.14-.15.21-.41.21-.77v-5.28c0-.24-.02-.43-.07-.56s-.16-.24-.32-.32-.42-.11-.77-.11v-.57h6.61l.06,2.18Z"/>
        <path class="cls-3" d="M156.63,78.68h-4.1v-.57c.34,0,.6-.03.77-.1s.29-.17.34-.31c.05-.14.08-.33.08-.58v-5.28c0-.36-.07-.62-.22-.77-.14-.15-.47-.22-.98-.22v-.57h4.1v.57c-.34,0-.6.04-.77.11s-.29.17-.34.31-.08.33-.08.58v5.28c0,.24.03.43.08.56.05.14.16.24.33.32s.43.11.79.11v.57Z"/>
        <path class="cls-3" d="M166.19,70.84c-.38,0-.66.04-.83.12-.17.08-.27.2-.31.36s-.06.41-.06.77v6.67h-.55l-5.28-6.54v4.63c0,.35.02.61.06.77.04.16.15.28.32.37.17.08.45.13.83.13v.57h-3v-.57c.36,0,.62-.04.78-.13s.26-.21.3-.37c.04-.16.06-.41.06-.77v-4.29c0-.35,0-.61-.03-.78-.02-.17-.06-.33-.13-.46-.07-.13-.18-.24-.33-.32-.15-.08-.36-.13-.63-.16v-.57h2.35l4.6,5.66v-3.84c0-.31-.02-.56-.06-.72-.04-.17-.15-.3-.31-.39s-.43-.14-.78-.14v-.57h3.01v.57Z"/>
        <path class="cls-3" d="M174.69,78.68h-3.81v-.57c.32,0,.56-.02.7-.07.15-.05.22-.16.22-.34,0-.12-.02-.25-.07-.38l-.38-.99h-2.62l-.2.55c-.11.31-.17.53-.17.66,0,.25.09.4.28.47.18.07.4.1.65.1v.57h-2.78v-.57c.22,0,.41-.04.57-.13.15-.09.3-.25.44-.49.14-.24.29-.58.46-1.03l2.33-6.35h.57l2.46,6.55c.18.46.31.78.39.94.08.16.2.29.35.38s.35.13.62.13v.57ZM171.14,75.72l-1.11-2.93-1.06,2.93h2.17Z"/>
        <path class="cls-3" d="M184.12,70.84c-.38,0-.66.04-.83.12-.17.08-.27.2-.31.36s-.06.41-.06.77v6.67h-.55l-5.28-6.54v4.63c0,.35.02.61.06.77s.15.28.32.37c.17.08.45.13.83.13v.57h-3v-.57c.36,0,.62-.04.78-.13s.26-.21.3-.37.06-.41.06-.77v-4.29c0-.35,0-.61-.03-.78-.02-.17-.06-.33-.13-.46-.07-.13-.18-.24-.33-.32-.15-.08-.36-.13-.63-.16v-.57h2.35l4.6,5.66v-3.84c0-.31-.02-.56-.06-.72-.04-.17-.15-.3-.31-.39s-.43-.14-.78-.14v-.57h3.01v.57Z"/>
        <path class="cls-3" d="M192.8,78.59h-.56c-.08-.36-.22-.67-.41-.96-.3.33-.65.61-1.04.84-.39.24-.92.35-1.58.35-.73,0-1.4-.18-2.02-.55-.62-.37-1.12-.88-1.49-1.54-.37-.66-.55-1.4-.55-2.23,0-.59.1-1.15.3-1.68.2-.53.49-1,.86-1.41.37-.4.81-.72,1.33-.96s1.08-.35,1.69-.35c1.01,0,1.84.34,2.5,1.03.09-.18.17-.44.26-.78h.54l.1,3.09h-.57c-.1-.52-.29-.99-.56-1.4-.27-.41-.59-.72-.96-.94-.37-.22-.76-.33-1.16-.33-.45,0-.86.13-1.22.39-.36.26-.64.65-.85,1.18s-.31,1.19-.31,1.98.09,1.41.26,1.92c.17.51.38.9.63,1.16s.51.44.76.53c.25.09.49.14.71.14.49,0,.93-.14,1.32-.41s.71-.62.96-1.03c.25-.42.42-.83.5-1.24h.57v3.17Z"/>
        <path class="cls-3" d="M201.37,75.91l-.07,2.77h-7.19v-.57c.5,0,.82-.07.96-.22.14-.15.21-.41.21-.77v-5.28c0-.24-.02-.43-.07-.56-.05-.13-.15-.24-.32-.32-.17-.08-.43-.11-.78-.11v-.57h6.7l.11,2.18h-.55c-.12-.48-.26-.83-.43-1.04s-.34-.34-.54-.38c-.2-.05-.5-.07-.9-.07h-1.51v2.97h.82c.28,0,.49-.03.63-.08s.24-.15.29-.29c.06-.14.09-.37.11-.68h.57v2.8h-.55c-.02-.31-.06-.54-.12-.69-.06-.15-.16-.24-.3-.29-.14-.05-.35-.07-.63-.07h-.83v1.98c0,.33,0,.57.02.73.02.15.06.28.13.38.07.1.18.17.34.22.16.05.38.07.67.07h.65c.27,0,.53-.04.78-.11.25-.07.49-.26.73-.56.24-.3.4-.77.5-1.41h.56Z"/>
      </g>
      <g>
        <path class="cls-1" d="M136.55,89.48c-.19.69-.39,2.07-.53,3.07l-.63.03c0-.3-.03-.87-.11-1.19-.11-.59-.39-.82-1.42-.82h-.94l-1.47,8.05c-.23,1.23-.15,1.44,1.35,1.54l-.13.59h-5.21l.13-.59c1.37-.1,1.5-.35,1.73-1.54l1.5-8.05h-.68c-1.19,0-1.48.18-1.82.66-.26.34-.47.72-.74,1.33l-.63-.02c.31-1.11.58-2.15.73-3.06h.44c.18.35.32.35.76.35h6.4c.4,0,.45-.05.79-.35h.48Z"/>
        <path class="cls-1" d="M135.42,94.87c.79-1.02,1.82-1.78,2.48-1.78s.82.69.84,2.12c.02,1.26.03,2.2,0,2.94.87-1.44,1.84-3.16,2.68-4.64h.61c.16,1.49.52,3.91.74,5.34.73-.86,1.85-2.52,1.85-3.51,0-.42-.23-.82-.32-1.01-.08-.15-.1-.27-.03-.44.15-.35.71-.81,1.19-.81s.77.45.77,1.13c0,.3-.15.92-.42,1.46-.71,1.38-2.48,3.51-3.95,5.27h-.69c-.21-1.33-.48-2.99-.69-4.45-.84,1.39-1.85,3.02-2.76,4.45h-.66c-.03-1.28-.15-4.9-.24-5.71-.08-.47-.18-.54-.29-.54-.13,0-.4.18-.85.67l-.26-.5Z"/>
        <path class="cls-1" d="M154.4,99.05c-.87,1.18-2.05,1.9-2.74,1.9-.53,0-.81-.49-.52-2.07l.11-.59c-.61.91-1.32,1.61-1.74,1.93-.56.47-1.03.72-1.58.72-.68,0-1.21-.67-1.21-2.03,0-1.63.63-3.33,1.77-4.43.89-.82,2.16-1.39,3.35-1.39.9,0,1.89.27,2.26.3-.32,1.31-.85,3.86-1.08,5.26-.06.42-.05.65.08.65.18,0,.55-.25,1.02-.76l.27.5ZM150.98,97.69c.27-.4.52-.92.68-1.58.15-.69.34-1.55.4-2-.23-.13-.71-.24-1.03-.24-1.48,0-2.21,2.79-2.18,4.57,0,.67.18.96.4.96.35,0,.94-.49,1.73-1.71Z"/>
        <path class="cls-1" d="M158.98,99.1c-1.02,1.28-2.16,1.85-2.82,1.85-.53,0-.82-.5-.56-1.68.31-1.34.68-2.79.92-3.91.11-.49.1-.64-.05-.64-.16,0-.53.23-.89.55l-.24-.54c1.08-1.09,2.23-1.65,2.82-1.65.55,0,.68.52.32,2.08-.24,1.04-.6,2.49-.84,3.53-.11.42-.11.65.02.65s.53-.24,1.05-.79l.27.54ZM159.25,90.7c0,.67-.48,1.31-1.19,1.31-.58,0-.98-.39-.98-1.04,0-.57.44-1.29,1.26-1.29.63,0,.92.47.92,1.02Z"/>
        <path class="cls-1" d="M170.7,93.07c.6,0,1.18.32.66,2.6-.19.89-.47,2.13-.68,3.04-.1.42-.08.6.05.6s.6-.22,1.08-.77l.26.54c-1.03,1.29-2.21,1.86-2.82,1.86-.52,0-.87-.35-.48-2.13.26-1.23.48-2.05.71-3.09.19-.82.11-1.09-.13-1.09-.45,0-1.44.94-2.14,2.17-.35.6-.45,1.02-.58,1.6-.16.72-.32,1.46-.45,2.18-.68.07-1.35.22-1.89.37l-.11-.15c.39-1.7.77-3.28,1.16-5.21.1-.52.15-.96-.19-.96-.48,0-1.43.96-2.14,2.2-.34.59-.45,1.04-.58,1.58-.16.71-.32,1.46-.45,2.17-.63.07-1.37.22-1.87.37l-.11-.15c.4-1.73.82-3.56,1.23-5.49.11-.5.08-.67-.05-.67-.16,0-.68.37-.98.71l-.24-.54c1.03-1.14,1.82-1.73,2.56-1.73.56,0,.85.69.52,2.28l-.13.57c1.03-1.46,2.39-2.86,3.6-2.86.52,0,1.11.32.68,2.47l-.1.4c1.06-1.51,2.55-2.87,3.64-2.87Z"/>
        <path class="cls-1" d="M180.7,99.05c-.87,1.18-2.05,1.9-2.74,1.9-.53,0-.81-.49-.52-2.07l.11-.59c-.61.91-1.32,1.61-1.74,1.93-.56.47-1.03.72-1.58.72-.68,0-1.21-.67-1.21-2.03,0-1.63.63-3.33,1.77-4.43.89-.82,2.16-1.39,3.35-1.39.9,0,1.89.27,2.26.3-.32,1.31-.85,3.86-1.08,5.26-.06.42-.05.65.08.65.18,0,.55-.25,1.02-.76l.27.5ZM177.28,97.69c.27-.4.52-.92.68-1.58.15-.69.34-1.55.4-2-.23-.13-.71-.24-1.03-.24-1.48,0-2.21,2.79-2.18,4.57,0,.67.18.96.4.96.35,0,.93-.49,1.73-1.71Z"/>
        <path class="cls-1" d="M181.52,94.8c.89-1.04,1.85-1.71,2.61-1.71.58,0,.79.72.4,2.42l-.08.37c.81-1.5,1.79-2.79,2.58-2.79.53,0,.89.47.89.91,0,.54-.45,1.21-.82,1.46-.18.12-.31.12-.4,0-.26-.29-.48-.5-.69-.5-.47,0-1.29,1.53-1.47,1.92-.39.82-.69,2.43-.93,3.71-.61.07-1.35.22-1.85.37l-.13-.15c.4-1.7.87-3.78,1.1-4.99.21-1.02.16-1.16.03-1.16s-.58.29-.98.69l-.24-.54Z"/>
        <path class="cls-1" d="M192.31,99.1c-1.02,1.28-2.16,1.85-2.82,1.85-.53,0-.82-.5-.56-1.68.31-1.34.68-2.79.92-3.91.11-.49.1-.64-.05-.64-.16,0-.53.23-.89.55l-.24-.54c1.08-1.09,2.22-1.65,2.82-1.65.55,0,.68.52.32,2.08-.24,1.04-.6,2.49-.84,3.53-.11.42-.11.65.02.65s.53-.24,1.05-.79l.27.54ZM192.59,90.7c0,.67-.48,1.31-1.19,1.31-.58,0-.98-.39-.98-1.04,0-.57.44-1.29,1.26-1.29.63,0,.92.47.92,1.02Z"/>
        <path class="cls-1" d="M198.67,94.16c0,.37-.24.79-.63.99-.21.1-.32.08-.55-.13-.5-.55-.89-.91-1.34-.91s-.68.35-.66.69c0,.44.52.79,1.11,1.24.93.71,1.63,1.18,1.63,2.1,0,1.53-2.21,2.81-3.34,2.81-.89,0-1.81-.59-1.84-1.36-.02-.4.39-.96.77-1.09.15-.05.24,0,.4.18.55.72,1.24,1.23,1.79,1.23.42,0,.69-.32.69-.69s-.15-.65-.97-1.28c-.81-.59-1.66-1.13-1.66-2.17,0-.64.29-1.24,1.03-1.86.63-.5,1.42-.82,2.06-.82.84,0,1.48.49,1.48,1.07Z"/>
        <path class="cls-1" d="M200.18,89.58c1.05-.13,1.87-.34,2.4-.47.27-.07.48-.13.58-.13.19,0,.23.2.15.57-.37,1.9-.84,4.22-1.23,6.11.9-1.28,2.43-2.57,3.58-2.57.63,0,1.26.32.76,2.57-.21.91-.5,2.13-.71,3.04-.1.44-.08.62.05.62.15,0,.55-.24,1.02-.74l.27.54c-.94,1.16-2.26,1.83-2.87,1.83-.55,0-.79-.37-.5-1.7.29-1.21.65-2.59.85-3.63.21-.82.13-1.07-.15-1.07-.58,0-1.42.71-2.11,1.96-.36.6-.48,1.09-.61,1.66-.16.72-.35,1.78-.45,2.4-.64.07-1.32.22-1.92.37l-.1-.15c.66-3.19,1.24-6.26,1.87-9.79.11-.71.05-.76-.53-.82-.15-.02-.4-.05-.48-.05l.13-.55Z"/>
        <path class="cls-1" d="M215.68,99.05c-.87,1.18-2.05,1.9-2.74,1.9-.53,0-.81-.49-.52-2.07l.11-.59c-.61.91-1.32,1.61-1.74,1.93-.56.47-1.03.72-1.58.72-.68,0-1.21-.67-1.21-2.03,0-1.63.63-3.33,1.77-4.43.89-.82,2.16-1.39,3.35-1.39.9,0,1.89.27,2.26.3-.32,1.31-.85,3.86-1.08,5.26-.06.42-.05.65.08.65.18,0,.55-.25,1.02-.76l.27.5ZM212.26,97.69c.27-.4.52-.92.68-1.58.15-.69.34-1.55.4-2-.23-.13-.71-.24-1.03-.24-1.48,0-2.21,2.79-2.18,4.57,0,.67.18.96.4.96.36,0,.94-.49,1.73-1.71Z"/>
        <path class="cls-1" d="M226.19,90.43c-1.18.13-1.34.22-1.56,1.56l-1.18,6.43c-.42,2.38-1.16,3.63-2.6,4.3-.6.29-1.48.45-1.85.47l-.13-.67c1.52-.37,1.93-1.07,2.52-4.25l1.14-6.28c.24-1.31.1-1.44-1.23-1.56l.15-.6h4.87l-.13.6Z"/>
        <path class="cls-1" d="M233.08,99.05c-.87,1.18-2.05,1.9-2.74,1.9-.53,0-.81-.49-.52-2.07l.11-.59c-.61.91-1.32,1.61-1.74,1.93-.56.47-1.03.72-1.58.72-.68,0-1.21-.67-1.21-2.03,0-1.63.63-3.33,1.77-4.43.89-.82,2.16-1.39,3.35-1.39.9,0,1.89.27,2.26.3-.32,1.31-.85,3.86-1.08,5.26-.06.42-.05.65.08.65.18,0,.55-.25,1.02-.76l.27.5ZM229.66,97.69c.27-.4.52-.92.68-1.58.15-.69.34-1.55.4-2-.23-.13-.71-.24-1.03-.24-1.48,0-2.21,2.79-2.18,4.57,0,.67.18.96.4.96.36,0,.94-.49,1.73-1.71Z"/>
        <path class="cls-1" d="M244.69,93.07c.6,0,1.18.32.66,2.6-.19.89-.47,2.13-.68,3.04-.1.42-.08.6.05.6s.6-.22,1.08-.77l.26.54c-1.03,1.29-2.21,1.86-2.82,1.86-.52,0-.87-.35-.48-2.13.26-1.23.48-2.05.71-3.09.19-.82.11-1.09-.13-1.09-.45,0-1.44.94-2.14,2.17-.35.6-.45,1.02-.58,1.6-.16.72-.32,1.46-.45,2.18-.68.07-1.35.22-1.89.37l-.11-.15c.39-1.7.77-3.28,1.16-5.21.1-.52.15-.96-.19-.96-.48,0-1.44.96-2.14,2.2-.34.59-.45,1.04-.58,1.58-.16.71-.32,1.46-.45,2.17-.63.07-1.37.22-1.87.37l-.11-.15c.4-1.73.82-3.56,1.23-5.49.11-.5.08-.67-.05-.67-.16,0-.68.37-.98.71l-.24-.54c1.03-1.14,1.82-1.73,2.56-1.73.56,0,.85.69.52,2.28l-.13.57c1.03-1.46,2.39-2.86,3.6-2.86.52,0,1.11.32.68,2.47l-.1.4c1.06-1.51,2.55-2.87,3.64-2.87Z"/>
        <path class="cls-1" d="M250.71,99.1c-1.02,1.28-2.16,1.85-2.82,1.85-.53,0-.82-.5-.56-1.68.31-1.34.68-2.79.92-3.91.11-.49.1-.64-.05-.64-.16,0-.53.23-.89.55l-.24-.54c1.08-1.09,2.22-1.65,2.82-1.65.55,0,.68.52.32,2.08-.24,1.04-.6,2.49-.84,3.53-.11.42-.11.65.02.65s.53-.24,1.05-.79l.27.54ZM250.98,90.7c0,.67-.48,1.31-1.19,1.31-.58,0-.98-.39-.98-1.04,0-.57.44-1.29,1.26-1.29.63,0,.92.47.92,1.02Z"/>
        <path class="cls-1" d="M255.4,99.1c-1.02,1.28-2.16,1.85-2.82,1.85-.53,0-.82-.5-.56-1.68.31-1.34.68-2.79.92-3.91.11-.49.1-.64-.05-.64-.16,0-.53.23-.89.55l-.24-.54c1.08-1.09,2.22-1.65,2.82-1.65.55,0,.68.52.32,2.08-.24,1.04-.6,2.49-.84,3.53-.11.42-.11.65.02.65s.53-.24,1.05-.79l.27.54ZM255.67,90.7c0,.67-.48,1.31-1.19,1.31-.58,0-.98-.39-.98-1.04,0-.57.44-1.29,1.26-1.29.63,0,.92.47.92,1.02Z"/>
      </g>
      <path class="cls-2" d="M133.69,20.4c-1.89-5.86-7.13-8.48-12.49-7.75-7.6,1.04-11.64,7.32-13.04,14.87-1.97,10.65,1.36,23.51,10.9,24.49,6.53,1.1,12.42-.64,15.95-7.42,1.22-2.34,3.17-1.36,2.63.26-.49,2.26-.99,4.52-1.47,6.78-.24,1.12-.28,2.32-2.42,2.89-9.5,2.49-18.11,2.56-24.88-2.39-8.06-5.9-10.61-15.38-8.36-25.31.81-3.56,2.3-6.86,4.53-9.65,4.84-6.05,12.9-8.81,20.23-8.31,3.85.26,7.66,1.42,11.06,3.67.42,2.68.1,5.53.22,8.25-.93-.12-1.93-.25-2.86-.37h0ZM148.23,35.42c-.76,2.95-3.1,3.82-4.51,2.75-2.97-2.26.55-8.27,5.26-11.26,3.32-2.1,8.19-2.07,11.1.49,2.31,2.04,2.3,4.36,2.3,7.23v13.08c-.49,2.66,1.06,4.41,2.68,1.74,2.71-2.75,3.43,1.56.53,4.29-2.54,2.39-7.61,2.97-8.99-1.81-2.27,2.14-4.67,3.28-7.17,3.62-4.36.59-7.84-1.28-6.04-6.72.96-2.9,3.54-5.87,7.14-7.91,2.09-1.05,4.18-2.1,6.27-3.15-.02-1.46-.04-2.92-.06-4.38-.03-2.14-1.72-4.45-3.97-3.96-2.93.64-4.15,2.92-4.56,6h0ZM156.6,41.43l-.25,6.37c-2.1,2.5-4.56,4.2-6.85,3.1-2.66-2.97,1.87-6.9,7.11-9.47h0ZM171.79,29.98c2.82-1.3,4.71-3.31,5.73-5.97l2.83-.04v6.93c1.25-2.21,2.6-3.63,4.01-4.44,2.19-1.25,5.15-1.46,6.46,1.39,1.49,3.23-1.1,8.26-6.76,4.32-2.07.4-3.73,3.76-3.71,6.14v12.84l6.54,1.18c1.06.19,1.23.49,1.24,1.17.01,1.51.18,1.42-1.13,1.42l-15.83.06c-1.29,0-1.78.28-1.75-1.24.02-.95-.01-.85.77-1.11l4.39-1.49v-17.14l-3.35-.54c-2.93-.51-1.22-2.66.54-3.48h0ZM194.43,27.71c3.33-.89,5.1-1.82,5.73-4.8l2.83-.04v28.28l3.58,1.18c1.06.19,1.23.49,1.24,1.17.01,1.51.18,1.42-1.13,1.42l-13.49.06c-1.29,0-1.78-.17-1.75-1.69.02-.95-.01-.85.77-1.11l5.01-1.58v-19.03l-3.35-.54c-1.23-.51-1.31-2.82.54-3.32h0ZM199.46,8.66c2.01,0,3.65,1.74,3.65,3.88s-1.63,3.88-3.65,3.88-3.65-1.74-3.65-3.88,1.63-3.88,3.65-3.88h0ZM236.87,35.42c-.76,2.95-3.1,3.82-4.51,2.75-2.97-2.26.55-8.27,5.26-11.26,3.32-2.1,8.19-2.07,11.1.49,2.31,2.04,2.3,4.36,2.3,7.23v13.08c-.49,2.66,1.06,4.41,2.68,1.74,2.71-2.75,3.43,1.56.53,4.29-2.54,2.39-7.61,2.97-8.99-1.81-2.27,2.14-4.67,3.28-7.17,3.62-4.36.59-7.84-1.28-6.04-6.72.96-2.9,3.54-5.87,7.14-7.91,2.09-1.05,4.18-2.1,6.27-3.15-.02-1.46-.04-2.92-.06-4.38-.03-2.14-1.72-4.45-3.97-3.96-2.93.64-4.15,2.92-4.56,6h0ZM245.25,41.43l-.25,6.37c-2.1,2.5-4.56,4.2-6.85,3.1-2.66-2.97,1.87-6.9,7.11-9.47h0ZM211.31,28.05c3.33-.89,4.75-5.11,5.38-8.09l2.83-.04v6.96h8.75v4.48h-8.75v16.78c0,3.93,3.69,4.2,6.1,2.56,2.38-1.98,4.44.33,2.16,2.39-3.02,2.9-13.64,5.31-14.02-4.31v-16.76l-2.99-.64c-1.23-.51-1.31-2.82.54-3.32h0ZM260.44,45.01c.56-.14,1.39-.2,1.66-.2.12,0,.33.01.58.02,1.68,4.31,3.11,8.03,7.47,8.03,1.18,0,2.18-.25,3.03-1.19.84-.94,1.26-1.96,1.26-3.05,0-.75-.23-1.33-.48-1.91-1.91-4.55-8.03-3.12-11.48-7.23-2.08-2.48-2.55-5.55-1.38-8.77.86-2.35,2.31-3.85,4.2-4.77,3.54-1.69,8.5-.86,11.83,1.26.17,1.55.59,4.19.59,6.15,0,1.7-1.91,1.89-2.43.77-.1-.22-.21-.47-.33-.76-.9-2.08-1.75-2.72-2.7-3.56-.95-.85-2.03-1.28-3.27-1.28-4.11,0-4.49,6.23.15,7.52,4.47,1.24,9.92,4.06,9.92,11.01,0,5.73-4.99,8.79-8.95,8.83-1.64.02-6.77-.37-9.05-2.46-.06-.13-.59-7.46-.62-8.4h0Z"/>
      <g>
        <path class="cls-3" d="M81.59,17.21c5.2,8.67-4.2,17.65-15.84,15.85,3.52-7.04,10.19-10.93,15.84-15.85h0Z"/>
        <path class="cls-3" d="M61.79,33.06c-2.24-.18-5.35.51-6.6-.66,1.62-12.24,13.42-14.3,18.48-23.11,9.42,10.27-9.31,15.13-11.88,23.76h0Z"/>
        <path class="cls-3" d="M55.85,23.81c-3.92-10.74,5.06-14.3,9.25-19.14,9.47,7.44-6.31,13.62-9.25,19.14h0Z"/>
        <path class="cls-3" d="M71.81,81.44c-8.67,5.2-17.65-4.2-15.85-15.84,7.04,3.52,10.93,10.19,15.85,15.84h0Z"/>
        <path class="cls-3" d="M55.96,61.64c.18-2.24-.51-5.35.66-6.6,12.25,1.62,14.31,13.42,23.11,18.48-10.28,9.42-15.13-9.31-23.76-11.88h0Z"/>
        <path class="cls-3" d="M65.21,55.7c10.74-3.92,14.3,5.06,19.14,9.25-7.44,9.47-13.62-6.31-19.14-9.25h0Z"/>
        <path class="cls-3" d="M7.31,71.12c-5.2-8.67,4.2-17.65,15.84-15.85-3.52,7.04-10.19,10.93-15.84,15.85h0Z"/>
        <path class="cls-3" d="M27.11,55.28c2.24.18,5.35-.51,6.6.66-1.62,12.25-13.42,14.31-18.49,23.11-9.42-10.27,9.32-15.13,11.88-23.76h0Z"/>
        <path class="cls-3" d="M33.05,64.53c3.92,10.74-5.06,14.3-9.25,19.14-9.47-7.44,6.31-13.62,9.25-19.14h0Z"/>
        <polygon class="cls-3" points="0 35.97 35.88 35.97 35.88 0 52.9 0 52.9 35.97 89.12 35.97 89.12 53.15 52.9 53.15 52.9 89.12 35.88 89.12 35.88 53.15 0 53.15 0 35.97 0 35.97"/>
        <path class="cls-3" d="M17.63,7.43c8.67-5.2,17.65,4.2,15.85,15.84-7.04-3.52-10.93-10.19-15.85-15.84h0Z"/>
        <path class="cls-3" d="M33.48,27.23c-.18,2.24.51,5.35-.66,6.6-12.25-1.62-14.31-13.42-23.11-18.48,10.27-9.42,15.13,9.31,23.76,11.88h0Z"/>
        <path class="cls-3" d="M24.23,33.17c-10.74,3.92-14.3-5.06-19.14-9.25,7.44-9.47,13.62,6.31,19.14,9.25h0Z"/>
      </g>
    </g>
  </g>
</svg>