<?xml version="1.0" encoding="UTF-8"?>
<svg id="Layer_2" data-name="Layer 2" xmlns="http://www.w3.org/2000/svg" viewBox="0 0 89.12 89.12">
  <defs>
    <style>
      .cls-1 {
        fill: #c72026;
      }
    </style>
  </defs>
  <g id="Layer_1-2" data-name="Layer 1">
    <g>
      <path class="cls-1" d="M81.59,17.21c5.2,8.67-4.2,17.65-15.84,15.85,3.52-7.04,10.19-10.93,15.84-15.85h0Z"/>
      <path class="cls-1" d="M61.79,33.06c-2.24-.18-5.35.51-6.6-.66,1.62-12.24,13.42-14.3,18.48-23.11,9.42,10.27-9.31,15.13-11.88,23.76h0Z"/>
      <path class="cls-1" d="M55.85,23.81c-3.92-10.74,5.06-14.3,9.25-19.14,9.47,7.44-6.31,13.62-9.25,19.14h0Z"/>
      <path class="cls-1" d="M71.81,81.44c-8.67,5.2-17.65-4.2-15.85-15.84,7.04,3.52,10.93,10.19,15.85,15.84h0Z"/>
      <path class="cls-1" d="M55.96,61.64c.18-2.24-.51-5.35.66-6.6,12.25,1.62,14.31,13.42,23.11,18.48-10.28,9.42-15.13-9.31-23.76-11.88h0Z"/>
      <path class="cls-1" d="M65.21,55.7c10.74-3.92,14.3,5.06,19.14,9.25-7.44,9.47-13.62-6.31-19.14-9.25h0Z"/>
      <path class="cls-1" d="M7.31,71.12c-5.2-8.67,4.2-17.65,15.84-15.85-3.52,7.04-10.19,10.93-15.84,15.85h0Z"/>
      <path class="cls-1" d="M27.11,55.28c2.24.18,5.35-.51,6.6.66-1.62,12.25-13.42,14.31-18.49,23.11-9.42-10.27,9.32-15.13,11.88-23.76h0Z"/>
      <path class="cls-1" d="M33.05,64.53c3.92,10.74-5.06,14.3-9.25,19.14-9.47-7.44,6.31-13.62,9.25-19.14h0Z"/>
      <polygon class="cls-1" points="0 35.97 35.88 35.97 35.88 0 52.9 0 52.9 35.97 89.12 35.97 89.12 53.15 52.9 53.15 52.9 89.12 35.88 89.12 35.88 53.15 0 53.15 0 35.97 0 35.97"/>
      <path class="cls-1" d="M17.63,7.43c8.67-5.2,17.65,4.2,15.85,15.84-7.04-3.52-10.93-10.19-15.85-15.84h0Z"/>
      <path class="cls-1" d="M33.48,27.23c-.18,2.24.51,5.35-.66,6.6-12.25-1.62-14.31-13.42-23.11-18.48,10.27-9.42,15.13,9.31,23.76,11.88h0Z"/>
      <path class="cls-1" d="M24.23,33.17c-10.74,3.92-14.3-5.06-19.14-9.25,7.44-9.47,13.62,6.31,19.14,9.25h0Z"/>
    </g>
  </g>
</svg>