<?xml version="1.0" encoding="UTF-8"?>
<svg id="Layer_2" data-name="Layer 2" xmlns="http://www.w3.org/2000/svg" viewBox="0 0 551.62 319.37">
  <defs>
    <style>
      .cls-1 {
        fill: #fff;
      }

      .cls-2 {
        opacity: .11;
      }

      .cls-3 {
        fill: #c72026;
      }
    </style>
  </defs>
  <g id="Layer_1-2" data-name="Layer 1">
    <rect class="cls-3" width="551.62" height="319.37"/>
    <g class="cls-2">
      <path class="cls-1" d="M520.79,63.68c18.35,30.62-14.83,62.32-55.94,55.96,12.44-24.85,36-38.59,55.94-55.96h0Z"/>
      <path class="cls-1" d="M450.86,119.64c-7.9-.62-18.88,1.8-23.31-2.32,5.73-43.24,47.4-50.52,65.26-81.59,33.28,36.28-32.88,53.43-41.95,83.92h0Z"/>
      <path class="cls-1" d="M429.88,86.99c-13.83-37.93,17.86-50.49,32.66-67.6,33.43,26.27-22.29,48.1-32.66,67.6h0Z"/>
      <path class="cls-1" d="M486.23,290.51c-30.61,18.36-62.31-14.83-55.96-55.94,24.85,12.44,38.6,36,55.96,55.94h0Z"/>
      <path class="cls-1" d="M430.27,220.58c.62-7.9-1.8-18.88,2.32-23.31,43.24,5.73,50.52,47.4,81.6,65.26-36.29,33.28-53.43-32.88-83.92-41.95h0Z"/>
      <path class="cls-1" d="M462.92,199.6c37.92-13.84,50.49,17.86,67.6,32.65-26.27,33.43-48.1-22.29-67.6-32.65h0Z"/>
      <path class="cls-1" d="M258.46,254.06c-18.35-30.62,14.82-62.32,55.93-55.96-12.43,24.85-36,38.59-55.93,55.96h0Z"/>
      <path class="cls-1" d="M328.38,198.11c7.9.62,18.88-1.8,23.31,2.32-5.73,43.24-47.4,50.52-65.28,81.6-33.26-36.28,32.9-53.43,41.97-83.92h0Z"/>
      <path class="cls-1" d="M349.37,230.76c13.84,37.92-17.86,50.48-32.65,67.6-33.43-26.27,22.29-48.1,32.65-67.6h0Z"/>
      <polygon class="cls-1" points="232.65 129.92 359.37 129.92 359.37 2.9 419.47 2.9 419.47 129.92 547.35 129.92 547.35 190.58 419.47 190.58 419.47 317.6 359.37 317.6 359.37 190.58 232.65 190.58 232.65 129.92 232.65 129.92"/>
      <path class="cls-1" d="M294.91,29.12c30.61-18.36,62.31,14.82,55.96,55.93-24.85-12.43-38.6-36-55.96-55.93h0Z"/>
      <path class="cls-1" d="M350.86,99.05c-.62,7.9,1.8,18.88-2.32,23.31-43.24-5.73-50.52-47.4-81.6-65.26,36.28-33.28,53.43,32.88,83.92,41.95h0Z"/>
      <path class="cls-1" d="M318.21,120.03c-37.92,13.83-50.49-17.86-67.6-32.66,26.27-33.43,48.1,22.29,67.6,32.66h0Z"/>
    </g>
  </g>
</svg>