<?xml version="1.0" encoding="UTF-8"?>
<svg id="Layer_2" data-name="Layer 2" xmlns="http://www.w3.org/2000/svg" viewBox="0 0 32 26">
  <defs>
    <style>
      .cls-1 {
        fill: #fff;
      }
    </style>
  </defs>
  <g id="Layer_1-2" data-name="Layer 1">
    <path class="cls-1" d="M15.97,26H4.96C1.94,26,.01,24.12,0,21.15V4.85C.01,1.89,1.94,0,4.95,0h22.13c3.02,0,4.92,1.88,4.92,4.85v16.3c0,2.96-1.9,4.85-4.92,4.85h-11.1ZM16.03,24.69c.38,0,.76-.02,1.14,0,.39.02.53-.15.49-.52-.1-1.01.43-1.57,1.29-2.04,1.62-.89,2.48-2.3,2.56-4.15.02-.45-.04-.79-.44-1.13-.56-.46-.78-1.13-.77-1.86v-3.98c0-.76.24-1.44.83-1.92.3-.26.4-.52.4-.89-.04-1.92-.89-3.39-2.56-4.33-.84-.47-1.39-1.03-1.29-2.04.03-.35-.09-.54-.49-.53-.76.02-1.52.02-2.27,0-.41,0-.6.16-.55.57.11,1.02-.48,1.56-1.31,2.02-1.6.88-2.39,2.3-2.53,4.09-.03.44.01.79.43,1.13.54.42.78,1.05.78,1.76-.01,1.42,0,2.83,0,4.25,0,.74-.27,1.37-.83,1.83-.36.29-.4.59-.38.98.13,1.9.97,3.35,2.68,4.27.58.31,1.19.69,1.13,1.41-.09,1.05.43,1.21,1.28,1.09.14-.02.29,0,.43,0h-.01ZM23.62,1.32h-4.03c-.24,0-.57-.1-.64.28-.05.31-.1.65.19.88.15.13.35.2.53.31,1.47.86,2.41,2.11,2.91,3.74.19.63-.15,1.52.44,1.85.52.28,1.31.09,1.98.1.47,0,.85.14.83.65-.02.44-.37.6-.81.6-.73-.01-1.46-.02-2.19,0-.76.02-1.21.4-1.21,1.18-.01,1.38,0,2.77,0,4.15,0,.82.47,1.21,1.27,1.22,2.39.01,4.78,0,7.16.01.43,0,.64-.11.64-.57-.02-1.81-.01-3.64,0-5.45,0-.41-.14-.57-.56-.55-.58.02-1.17,0-1.75,0-.41,0-.7-.19-.72-.59-.03-.46.29-.65.74-.65.52,0,1.05-.04,1.57,0,.61.05.75-.2.74-.75-.03-.98.01-1.96-.01-2.94-.05-2.25-1.27-3.42-3.56-3.46-1.17-.01-2.33,0-3.5,0h-.02ZM8.37,24.68h4.01c.26,0,.64.13.68-.32.03-.33.1-.71-.3-.91-.15-.09-.31-.15-.47-.25-1.45-.88-2.4-2.13-2.9-3.75-.18-.61.12-1.47-.37-1.78-.45-.29-1.23-.11-1.87-.13-.44,0-.75-.16-.73-.64.02-.49.36-.6.79-.6.62,0,1.22.01,1.84,0,.89-.02,1.33-.39,1.36-1.23.04-1.35.03-2.72,0-4.07-.02-.77-.44-1.25-1.26-1.26-2.41-.01-4.84,0-7.25-.01-.41,0-.56.13-.56.55.01,1.81.02,3.64,0,5.45,0,.46.17.6.62.58.61-.03,1.22,0,1.84,0,.43,0,.77.13.78.61.01.48-.3.64-.75.64-.62,0-1.22.03-1.84,0-.5-.02-.67.15-.65.64.03,1.01,0,2.02,0,3.03.02,2.22,1.2,3.42,3.43,3.48,1.19.02,2.39,0,3.58,0v-.03ZM23.54,24.69v-.04c1.43,0,2.86.05,4.27-.01,1.53-.08,2.68-1.19,2.8-2.71.1-1.27.04-2.53.09-3.8.02-.55-.28-.59-.71-.59-1.86.01-3.72,0-5.59,0-.96,0-1.52.48-1.69,1.44-.01.09-.04.17-.06.25-.45,1.84-1.5,3.22-3.2,4.1-.44.23-.55.56-.5.99.08.56.53.34.83.35,1.26.02,2.5,0,3.76,0v.02ZM8.43,1.32v.04c-1.43,0-2.86-.06-4.29.02-1.52.09-2.72,1.34-2.77,2.83-.05,1.21,0,2.43-.03,3.64,0,.43.12.61.6.61,2.22-.02,4.43-.02,6.64,0,.5,0,.67-.17.66-.65-.02-.88.25-1.71.65-2.48.57-1.11,1.4-2,2.51-2.57.51-.26.82-.58.65-1.14-.17-.56-.69-.28-1.05-.29-1.19-.03-2.39-.01-3.58-.01h.01Z"/>
  </g>
</svg>